<?xml version="1.0" encoding="utf-8"?>
<!-- Generator: Adobe Illustrator 16.0.0, SVG Export Plug-In . SVG Version: 6.00 Build 0)  -->
<!DOCTYPE svg PUBLIC "-//W3C//DTD SVG 1.1//EN" "http://www.w3.org/Graphics/SVG/1.1/DTD/svg11.dtd">
<svg version="1.1" id="레이어_1" xmlns="http://www.w3.org/2000/svg" xmlns:xlink="http://www.w3.org/1999/xlink" x="0px"
	 y="0px" width="53px" height="53px" viewBox="0 0 53 53" enable-background="new 0 0 53 53" xml:space="preserve">
<path d="M49.16,0H49.1H3.155C1.175,0,0,1.057,0,3.043v45.941C0,50.967,1.175,53,3.155,53H49.1c1.985,0,3.9-2.049,3.9-4.016V3.043
	C53,1.057,51.145,0,49.16,0z M27,46H13.792C11.053,46,9,44.042,9,41.305V11.543C9,8.803,11.053,7,13.792,7h24.801
	C41.332,7,43,8.885,43,11.625v12.156l-2,2.342v-14.58C41,10.175,39.962,9,38.593,9H13.792C12.426,9,11,10.175,11,11.543v29.762
	C11,42.672,12.426,44,13.792,44H27V46z M15,27v-3h19v3H15z M25,32v3H15v-3H25z M15,18v-2h19v2H15z M42.33,37.191l-7.902,8.35
	l-5.295,0.723l0.43-5.326l7.902-8.35l7.9-8.349l2.433,2.303l2.433,2.302L42.33,37.191z"/>
</svg>
